<svg width="100" height="100" viewBox="0 0 100 100" fill="none" xmlns="http://www.w3.org/2000/svg">
<path d="M100 50C100 63.2608 94.7322 75.9785 85.3553 85.3553C75.9785 94.7322 63.2608 100 50 100C43.4339 100 36.9321 98.7067 30.8658 96.194C24.7995 93.6812 19.2876 89.9983 14.6447 85.3553C5.26784 75.9785 0 63.2608 0 50C0 36.7392 5.26784 24.0215 14.6447 14.6447C24.0215 5.26784 36.7392 0 50 0C56.5661 0 63.0679 1.29329 69.1342 3.80602C75.2005 6.31876 80.7124 10.0017 85.3553 14.6447C89.9983 19.2876 93.6812 24.7995 96.194 30.8658C98.7067 36.9321 100 43.4339 100 50ZM20 55H60L42.5 72.5L49.6 79.6L79.2 50L49.6 20.4L42.5 27.5L60 45H20V55Z" fill="#6D6CFD"/>
</svg>
