<svg width="237" height="38" viewBox="0 0 237 38" fill="none" xmlns="http://www.w3.org/2000/svg">
<path d="M24.1289 4.99292C23.7053 5.22976 23.5289 5.77112 23.5289 6.81999C23.5289 8.17337 23.4583 8.30871 22.47 8.51172C21.4112 8.74856 19.5053 10.508 19.1524 11.6583C19.0112 12.0305 18.5877 12.4027 18.2347 12.5042C17.2112 12.7749 17.2112 15.1095 18.2347 15.1095C18.87 15.1095 18.9406 15.3463 18.9406 17.2749C18.9406 19.2711 18.87 19.4741 18.1642 19.5756C17.4936 19.6433 17.3171 19.914 17.2465 20.929L17.1406 22.2147H21.3759C25.2583 22.2147 25.6112 22.2824 25.823 22.8914C26.1406 23.8726 27.9759 25.1922 29.423 25.4628C31.3642 25.8012 33.623 24.617 34.47 22.7899C35.3524 20.9628 35.3524 20.3877 34.4347 18.5944C33.5877 16.9365 32.2818 16.1245 30.4112 16.1245C29.5642 16.1245 29.1759 15.9892 29.1759 15.617C29.1759 15.3463 29.4936 15.1095 29.8818 15.1095C30.9053 15.1095 30.9053 12.7749 29.8818 12.5042C29.5289 12.4027 29.1053 11.9967 28.9642 11.5907C28.6112 10.4741 26.7053 8.74856 25.5759 8.51172C23.8818 8.13954 24.4112 7.46285 26.3877 7.49668C27.9759 7.49668 28.2936 7.36134 28.9289 6.54931C29.4583 5.90646 29.5642 5.53428 29.2818 5.2636C28.9994 4.99292 28.823 4.99292 28.6818 5.2636C28.3289 5.77112 26.8465 5.73728 25.7171 5.1621C25.0465 4.82375 24.5524 4.78992 24.1289 4.99292ZM25.47 5.94029C25.5759 6.10946 26.1406 6.34631 26.7406 6.48164C28.2936 6.81999 27.7289 7.09067 26.0347 6.81999C25.1524 6.68465 24.5877 6.41397 24.5877 6.10946C24.5877 5.56811 25.1524 5.46661 25.47 5.94029ZM25.5406 9.35758C26.2818 9.35758 28.1171 11.4215 28.1171 12.2674C28.1171 12.9102 28.2936 13.0794 29.0347 13.0794C29.7053 13.0794 29.9171 13.2147 29.8112 13.6546C29.7053 14.1959 29.1406 14.2636 24.0583 14.2636C19.0818 14.2636 18.4112 14.1959 18.3053 13.6884C18.2347 13.3162 18.4818 13.0794 18.9759 13.0117C19.5406 12.9441 19.8583 12.5719 20.07 11.8613C20.5289 10.1696 22.6465 8.85007 24.4112 9.18841C24.7994 9.28992 25.2936 9.35758 25.5406 9.35758ZM20.4936 17.3764C20.4583 18.7636 20.3171 19.6771 20.07 19.7786C19.7877 19.8463 19.6465 19.1696 19.6465 17.5117C19.6465 15.82 19.7877 15.1095 20.1053 15.1095C20.3877 15.1095 20.5289 15.7862 20.4936 17.3764ZM22.823 17.3087C22.823 19.2711 22.7524 19.508 22.1171 19.508C21.4818 19.508 21.4112 19.2711 21.4112 17.3087C21.4112 15.3463 21.4818 15.1095 22.1171 15.1095C22.7524 15.1095 22.823 15.3463 22.823 17.3087ZM24.5171 17.3087C24.3759 20.2523 23.7406 20.2862 23.5994 17.3764C23.5289 15.4816 23.5994 15.1095 24.0583 15.1095C24.5171 15.1095 24.5877 15.4816 24.5171 17.3087ZM26.7053 16.1245C26.7053 16.6997 26.3877 17.7147 25.9994 18.3914L25.2936 19.6771V17.3764C25.2936 15.3463 25.3642 15.1095 25.9994 15.1095C26.5642 15.1095 26.7053 15.3463 26.7053 16.1245ZM28.47 15.7862C28.47 16.1583 28.223 16.4628 27.9406 16.4628C27.6583 16.4628 27.4112 16.1583 27.4112 15.7862C27.4112 15.414 27.6583 15.1095 27.9406 15.1095C28.223 15.1095 28.47 15.414 28.47 15.7862ZM31.7877 17.1395C32.2818 17.3087 33.023 17.9516 33.4112 18.5606C35.1053 21.2335 33.6583 24.1433 30.4818 24.4816C28.9642 24.6508 28.7524 24.5831 27.5877 23.4666C26.5289 22.4516 26.3524 22.0456 26.3524 20.6922C26.3524 19.3388 26.5289 18.9328 27.5524 17.9516C28.823 16.7335 30.0583 16.4967 31.7877 17.1395ZM25.2936 21.0305C25.2936 21.4365 24.6583 21.538 21.5877 21.538C18.5171 21.538 17.8818 21.4365 17.8818 21.0305C17.8818 20.6245 18.5171 20.523 21.5877 20.523C24.6583 20.523 25.2936 20.6245 25.2936 21.0305Z" fill="url(#paint0_radial_2906_16331)"/>
<path d="M29.0335 18.8314C28.1511 19.6435 28.0452 19.8803 28.4335 20.3202C28.7158 20.6247 29.4217 20.9968 30.0217 21.1322C31.5394 21.5044 31.1864 22.0796 29.5276 21.9442C28.01 21.8427 27.6217 22.3502 28.9276 22.7562C29.3511 22.8916 29.81 23.1284 29.9158 23.2976C30.2335 23.7713 31.9982 22.2149 31.9982 21.5044C31.9982 20.7938 31.01 20.1848 29.9158 20.1848C29.1041 20.1848 28.9276 19.6773 29.6335 19.4066C29.8805 19.3051 30.5158 19.3051 31.0452 19.4066C32.1747 19.6096 32.3864 18.8653 31.2923 18.5946C30.9041 18.4931 30.5864 18.2901 30.5864 18.1209C30.5864 17.6134 30.0923 17.8164 29.0335 18.8314Z" fill="url(#paint1_radial_2906_16331)"/>
<path d="M31.6449 9.76335C31.6449 11.2182 31.6802 11.2521 33.1626 11.6243C35.2802 12.1656 38.0332 14.6355 39.0214 16.8348C40.0802 19.1355 40.0802 22.2483 39.0214 24.5491C37.4332 28.1355 32.9861 30.707 29.2802 30.1994C25.8567 29.7596 22.8214 27.6957 21.5508 24.9551C20.9508 23.6355 20.845 23.5679 19.3979 23.5679C17.5626 23.5679 17.5273 23.7709 18.9744 26.5453C23.2802 34.8348 35.5273 35.4776 40.7508 27.6957C43.6802 23.2633 43.645 17.9175 40.5744 13.519C38.845 10.9814 35.8449 9.01899 32.9508 8.51147L31.6449 8.27463V9.76335ZM35.5979 10.44C44.2802 14.8724 44.0685 27.0867 35.2449 31.2483C32.5626 32.5002 28.1508 32.6017 25.5744 31.4513C23.3861 30.4701 20.845 28.1694 19.7861 26.207C18.7626 24.2784 18.7626 24.2445 19.5744 24.2445C19.9979 24.2445 20.4567 24.7182 20.8802 25.6318C21.7626 27.4927 24.5508 29.8273 26.7391 30.5039C28.9273 31.2145 32.6685 31.0791 34.5038 30.1994C36.6567 29.2182 38.5979 27.3573 39.6567 25.3273C40.5038 23.7032 40.645 22.9588 40.645 20.6919C40.645 18.425 40.5038 17.6806 39.6567 16.0566C38.5273 13.8573 36.5155 12.0641 34.2567 11.1506C33.2685 10.7446 32.7038 10.3385 32.7038 9.93252C32.7038 9.12049 33.1979 9.18816 35.5979 10.44Z" fill="url(#paint2_radial_2906_16331)"/>
<path d="M31.8602 12.3011C31.7543 12.4365 31.6484 13.0793 31.6484 13.7898C31.6484 14.9402 31.7896 15.1432 32.8837 15.6507C36.0249 17.0718 37.0131 21.3011 34.8602 24.1771C33.9073 25.4628 33.9426 25.6319 35.0014 26.6131C36.0602 27.5605 36.4837 27.2898 37.9308 24.9553C38.7426 23.6019 38.8837 23.0267 38.8837 20.6921C38.8837 18.3575 38.7426 17.7823 37.8955 16.3951C37.3661 15.5154 36.4131 14.3989 35.7778 13.959C34.4014 12.944 32.1778 11.9966 31.8602 12.3011ZM36.0249 15.4477C37.5426 17.0718 38.4955 19.9139 38.1426 21.7748C37.8955 23.1282 36.3073 26.2748 35.8484 26.2748C35.2131 26.2748 35.319 25.1921 36.0955 23.7034C37.119 21.7748 37.1896 19.8462 36.272 17.9853C35.672 16.6996 33.7308 14.771 33.0602 14.771C32.7426 14.771 32.3543 13.553 32.6014 13.3162C32.919 12.9778 34.8249 14.162 36.0249 15.4477Z" fill="url(#paint3_radial_2906_16331)"/>
<path d="M67.3079 16.152C67.2073 15.7791 67.0593 15.4506 66.864 15.1665C66.6687 14.8765 66.429 14.6309 66.1449 14.4297C65.8608 14.2285 65.5353 14.0775 65.1683 13.9769C64.8014 13.8704 64.3989 13.8171 63.9609 13.8171C63.0791 13.8171 62.3156 14.0302 61.6705 14.4563C61.0312 14.8825 60.5371 15.5039 60.1879 16.3207C59.8387 17.1315 59.6641 18.117 59.6641 19.277C59.6641 20.4429 59.8327 21.4373 60.1701 22.2599C60.5075 23.0826 60.9957 23.71 61.6349 24.142C62.2741 24.5741 63.0495 24.7901 63.9609 24.7901C64.7659 24.7901 65.4465 24.6599 66.0028 24.3995C66.5651 24.1332 66.9912 23.7573 67.2812 23.272C67.5713 22.7867 67.7163 22.2156 67.7163 21.5586L68.533 21.6562H64.1119V18.4513H71.951V20.8572C71.951 22.4848 71.6048 23.8787 70.9123 25.0387C70.2257 26.1987 69.2788 27.0895 68.0714 27.7109C66.8699 28.3324 65.4879 28.6431 63.9254 28.6431C62.1913 28.6431 60.6673 28.2673 59.3533 27.5156C58.0394 26.764 57.0155 25.6927 56.2816 24.3018C55.5477 22.9051 55.1808 21.2479 55.1808 19.3303C55.1808 17.8388 55.4027 16.516 55.8466 15.3619C56.2905 14.2018 56.909 13.2193 57.7021 12.4144C58.5011 11.6095 59.4244 10.9999 60.4719 10.5856C61.5255 10.1713 62.6589 9.96413 63.8722 9.96413C64.9257 9.96413 65.9052 10.1151 66.8107 10.4169C67.7222 10.7188 68.5271 11.1449 69.2255 11.6953C69.9298 12.2457 70.5009 12.8997 70.9389 13.6573C71.3769 14.4149 71.6491 15.2464 71.7557 16.152H67.3079ZM80.9065 28.652C79.4742 28.652 78.2432 28.359 77.2133 27.7731C76.1894 27.1812 75.3993 26.3585 74.843 25.305C74.2925 24.2456 74.0173 23.0175 74.0173 21.6207C74.0173 20.218 74.2925 18.9899 74.843 17.9364C75.3993 16.877 76.1894 16.0543 77.2133 15.4684C78.2432 14.8765 79.4742 14.5806 80.9065 14.5806C82.3388 14.5806 83.5669 14.8765 84.5908 15.4684C85.6207 16.0543 86.4108 16.877 86.9612 17.9364C87.5175 18.9899 87.7957 20.218 87.7957 21.6207C87.7957 23.0175 87.5175 24.2456 86.9612 25.305C86.4108 26.3585 85.6207 27.1812 84.5908 27.7731C83.5669 28.359 82.3388 28.652 80.9065 28.652ZM80.9331 25.3761C81.454 25.3761 81.8949 25.2163 82.2559 24.8967C82.617 24.5771 82.8922 24.1332 83.0816 23.565C83.2769 22.9968 83.3746 22.3398 83.3746 21.5941C83.3746 20.8365 83.2769 20.1737 83.0816 19.6055C82.8922 19.0373 82.617 18.5934 82.2559 18.2738C81.8949 17.9542 81.454 17.7944 80.9331 17.7944C80.3946 17.7944 79.9388 17.9542 79.566 18.2738C79.199 18.5934 78.9179 19.0373 78.7226 19.6055C78.5332 20.1737 78.4385 20.8365 78.4385 21.5941C78.4385 22.3398 78.5332 22.9968 78.7226 23.565C78.9179 24.1332 79.199 24.5771 79.566 24.8967C79.9388 25.2163 80.3946 25.3761 80.9331 25.3761ZM90.0196 28.3945V10.2127H102.431V13.7816H94.4142V17.5103H101.641V21.0881H94.4142V28.3945H90.0196ZM112.587 22.5085V14.7582H116.919V28.3945H112.782V25.8555H112.64C112.339 26.69 111.824 27.3529 111.096 27.8441C110.374 28.3294 109.501 28.5721 108.477 28.5721C107.547 28.5721 106.731 28.359 106.026 27.9329C105.322 27.5067 104.775 26.9119 104.384 26.1484C103.993 25.379 103.795 24.4794 103.789 23.4496V14.7582H108.13V22.5973C108.136 23.3371 108.332 23.9201 108.716 24.3462C109.101 24.7724 109.625 24.9854 110.288 24.9854C110.72 24.9854 111.107 24.8907 111.451 24.7013C111.8 24.506 112.075 24.2249 112.276 23.858C112.484 23.4851 112.587 23.0353 112.587 22.5085ZM124.024 20.6175V28.3945H119.683V14.7582H123.811V17.2617H123.962C124.264 16.4272 124.779 15.7732 125.507 15.2997C126.235 14.8203 127.102 14.5806 128.108 14.5806C129.067 14.5806 129.898 14.7966 130.602 15.2287C131.313 15.6548 131.863 16.2526 132.254 17.022C132.65 17.7855 132.846 18.6792 132.84 19.7031V28.3945H128.498V20.5554C128.504 19.7978 128.312 19.206 127.921 18.7798C127.537 18.3537 127.001 18.1406 126.314 18.1406C125.859 18.1406 125.456 18.2412 125.107 18.4425C124.764 18.6378 124.497 18.9189 124.308 19.2859C124.125 19.6528 124.03 20.0967 124.024 20.6175ZM140.508 28.5898C139.502 28.5898 138.587 28.3294 137.765 27.8086C136.942 27.2878 136.285 26.5065 135.794 25.4648C135.303 24.4232 135.057 23.13 135.057 21.5852C135.057 19.9813 135.311 18.6615 135.82 17.6257C136.329 16.59 136.995 15.8235 137.818 15.3263C138.647 14.8292 139.537 14.5806 140.49 14.5806C141.206 14.5806 141.819 14.7049 142.328 14.9535C142.837 15.1961 143.257 15.5098 143.589 15.8945C143.92 16.2792 144.171 16.6787 144.343 17.093H144.432V10.2127H148.773V28.3945H144.476V26.1839H144.343C144.16 26.6042 143.899 26.9978 143.562 27.3647C143.225 27.7317 142.801 28.0276 142.292 28.2525C141.789 28.4774 141.194 28.5898 140.508 28.5898ZM142.017 25.2074C142.544 25.2074 142.994 25.0594 143.367 24.7635C143.739 24.4616 144.026 24.0385 144.228 23.494C144.429 22.9495 144.53 22.3103 144.53 21.5763C144.53 20.8306 144.429 20.1884 144.228 19.6499C144.032 19.1113 143.745 18.697 143.367 18.407C142.994 18.117 142.544 17.9719 142.017 17.9719C141.479 17.9719 141.023 18.1199 140.65 18.4158C140.277 18.7118 139.993 19.129 139.798 19.6676C139.608 20.2062 139.514 20.8424 139.514 21.5763C139.514 22.3103 139.611 22.9495 139.807 23.494C140.002 24.0385 140.283 24.4616 140.65 24.7635C141.023 25.0594 141.479 25.2074 142.017 25.2074ZM155.913 10.2127V28.3945H151.519V10.2127H155.913ZM166.369 14.7582V17.9542H157.766V14.7582H166.369ZM159.569 11.4911H163.91V24.1065C163.91 24.3729 163.951 24.5889 164.034 24.7546C164.123 24.9144 164.25 25.0298 164.416 25.1009C164.582 25.166 164.78 25.1985 165.011 25.1985C165.176 25.1985 165.351 25.1837 165.535 25.1541C165.724 25.1186 165.866 25.089 165.961 25.0653L166.618 28.1992C166.41 28.2584 166.118 28.3324 165.739 28.4212C165.366 28.5099 164.919 28.5662 164.398 28.5898C163.38 28.6372 162.507 28.5188 161.779 28.2347C161.057 27.9447 160.504 27.4949 160.119 26.8853C159.74 26.2757 159.557 25.5092 159.569 24.5859V11.4911ZM184.351 10.2127V28.3945H180.622L173.387 17.9009H173.272V28.3945H168.877V10.2127H172.659L179.815 20.6886H179.965V10.2127H184.351ZM193.48 28.652C192.047 28.652 190.816 28.359 189.787 27.7731C188.763 27.1812 187.973 26.3585 187.416 25.305C186.866 24.2456 186.591 23.0175 186.591 21.6207C186.591 20.218 186.866 18.9899 187.416 17.9364C187.973 16.877 188.763 16.0543 189.787 15.4684C190.816 14.8765 192.047 14.5806 193.48 14.5806C194.912 14.5806 196.14 14.8765 197.164 15.4684C198.194 16.0543 198.984 16.877 199.534 17.9364C200.091 18.9899 200.369 20.218 200.369 21.6207C200.369 23.0175 200.091 24.2456 199.534 25.305C198.984 26.3585 198.194 27.1812 197.164 27.7731C196.14 28.359 194.912 28.652 193.48 28.652ZM193.506 25.3761C194.027 25.3761 194.468 25.2163 194.829 24.8967C195.19 24.5771 195.465 24.1332 195.655 23.565C195.85 22.9968 195.948 22.3398 195.948 21.5941C195.948 20.8365 195.85 20.1737 195.655 19.6055C195.465 19.0373 195.19 18.5934 194.829 18.2738C194.468 17.9542 194.027 17.7944 193.506 17.7944C192.968 17.7944 192.512 17.9542 192.139 18.2738C191.772 18.5934 191.491 19.0373 191.296 19.6055C191.106 20.1737 191.012 20.8365 191.012 21.5941C191.012 22.3398 191.106 22.9968 191.296 23.565C191.491 24.1332 191.772 24.5771 192.139 24.8967C192.512 25.2163 192.968 25.3761 193.506 25.3761ZM204.848 28.3945L201.297 14.7582H205.656L207.493 23.494H207.609L209.58 14.7582H213.832L215.856 23.4318H215.972L217.756 14.7582H222.115L218.555 28.3945H213.912L211.781 20.4489H211.631L209.5 28.3945H204.848Z" fill="url(#paint4_linear_2906_16331)"/>
<defs>
<radialGradient id="paint0_radial_2906_16331" cx="0" cy="0" r="1" gradientUnits="userSpaceOnUse" gradientTransform="translate(26.134 15.1939) rotate(-90) scale(10.3266 8.99341)">
<stop stop-color="#F6F6F6"/>
<stop offset="1" stop-color="white"/>
</radialGradient>
<radialGradient id="paint1_radial_2906_16331" cx="0" cy="0" r="1" gradientUnits="userSpaceOnUse" gradientTransform="translate(30.0741 20.6196) rotate(-90) scale(2.76613 1.93735)">
<stop stop-color="#F6F6F6"/>
<stop offset="1" stop-color="white"/>
</radialGradient>
<radialGradient id="paint2_radial_2906_16331" cx="0" cy="0" r="1" gradientUnits="userSpaceOnUse" gradientTransform="translate(30.4313 20.7203) rotate(-90) scale(12.4457 12.482)">
<stop stop-color="#F6F6F6"/>
<stop offset="1" stop-color="white"/>
</radialGradient>
<radialGradient id="paint3_radial_2906_16331" cx="0" cy="0" r="1" gradientUnits="userSpaceOnUse" gradientTransform="translate(35.2661 19.6836) rotate(-90) scale(7.4404 3.61765)">
<stop stop-color="#F6F6F6"/>
<stop offset="1" stop-color="white"/>
</radialGradient>
<linearGradient id="paint4_linear_2906_16331" x1="54" y1="19.3945" x2="269" y2="19" gradientUnits="userSpaceOnUse">
<stop stop-color="#FAFAFA"/>
<stop offset="1" stop-color="#031A37"/>
</linearGradient>
</defs>
</svg>
