<svg width="209" height="32" viewBox="0 0 209 32" fill="none" xmlns="http://www.w3.org/2000/svg">
<path d="M10.1289 1.99243C9.70533 2.22928 9.52886 2.77063 9.52886 3.8195C9.52886 5.17289 9.45827 5.30822 8.47004 5.51123C7.41121 5.74807 5.50533 7.50747 5.15239 8.65785C5.01121 9.03003 4.58768 9.40221 4.23474 9.50371C3.21121 9.77439 3.21121 12.109 4.23474 12.109C4.87004 12.109 4.94063 12.3458 4.94063 14.2744C4.94063 16.2706 4.87004 16.4736 4.16415 16.5751C3.49357 16.6428 3.3171 16.9135 3.24651 17.9285L3.14062 19.2142H7.37592C11.2583 19.2142 11.6112 19.2819 11.823 19.8909C12.1406 20.8721 13.9759 22.1917 15.423 22.4624C17.3642 22.8007 19.623 21.6165 20.47 19.7894C21.3524 17.9624 21.3524 17.3872 20.4347 15.5939C19.5877 13.936 18.2818 13.124 16.4112 13.124C15.5642 13.124 15.1759 12.9887 15.1759 12.6165C15.1759 12.3458 15.4936 12.109 15.8818 12.109C16.9053 12.109 16.9053 9.77439 15.8818 9.50371C15.5289 9.40221 15.1053 8.99619 14.9642 8.59018C14.6112 7.47364 12.7053 5.74807 11.5759 5.51123C9.8818 5.13905 10.4112 4.46236 12.3877 4.49619C13.9759 4.49619 14.2936 4.36086 14.9289 3.54883C15.4583 2.90597 15.5642 2.53379 15.2818 2.26311C14.9994 1.99243 14.823 1.99243 14.6818 2.26311C14.3289 2.77063 12.8465 2.7368 11.7171 2.16161C11.0465 1.82326 10.5524 1.78943 10.1289 1.99243ZM11.47 2.9398C11.5759 3.10898 12.1406 3.34582 12.7406 3.48116C14.2936 3.8195 13.7289 4.09018 12.0347 3.8195C11.1524 3.68416 10.5877 3.41349 10.5877 3.10898C10.5877 2.56762 11.1524 2.46612 11.47 2.9398ZM11.5406 6.3571C12.2818 6.3571 14.1171 8.42101 14.1171 9.26687C14.1171 9.90973 14.2936 10.0789 15.0347 10.0789C15.7053 10.0789 15.9171 10.2142 15.8112 10.6541C15.7053 11.1954 15.1406 11.2631 10.0583 11.2631C5.0818 11.2631 4.41121 11.1954 4.30533 10.6879C4.23474 10.3157 4.4818 10.0789 4.97592 10.0112C5.54063 9.94356 5.85827 9.57138 6.07004 8.86086C6.52886 7.16913 8.64651 5.84958 10.4112 6.18792C10.7994 6.28943 11.2936 6.3571 11.5406 6.3571ZM6.49357 14.3759C6.45827 15.7631 6.3171 16.6766 6.07004 16.7781C5.78768 16.8458 5.64651 16.1691 5.64651 14.5112C5.64651 12.8195 5.78768 12.109 6.10533 12.109C6.38768 12.109 6.52886 12.7857 6.49357 14.3759ZM8.82298 14.3082C8.82298 16.2706 8.75239 16.5075 8.1171 16.5075C7.4818 16.5075 7.41121 16.2706 7.41121 14.3082C7.41121 12.3458 7.4818 12.109 8.1171 12.109C8.75239 12.109 8.82298 12.3458 8.82298 14.3082ZM10.5171 14.3082C10.3759 17.2518 9.74063 17.2857 9.59945 14.3759C9.52886 12.4812 9.59945 12.109 10.0583 12.109C10.5171 12.109 10.5877 12.4812 10.5171 14.3082ZM12.7053 13.124C12.7053 13.6992 12.3877 14.7142 11.9994 15.3909L11.2936 16.6766V14.3759C11.2936 12.3458 11.3642 12.109 11.9994 12.109C12.5642 12.109 12.7053 12.3458 12.7053 13.124ZM14.47 12.7857C14.47 13.1578 14.223 13.4624 13.9406 13.4624C13.6583 13.4624 13.4112 13.1578 13.4112 12.7857C13.4112 12.4135 13.6583 12.109 13.9406 12.109C14.223 12.109 14.47 12.4135 14.47 12.7857ZM17.7877 14.1391C18.2818 14.3082 19.023 14.9511 19.4112 15.5601C21.1053 18.233 19.6583 21.1428 16.4818 21.4812C14.9642 21.6503 14.7524 21.5827 13.5877 20.4661C12.5289 19.4511 12.3524 19.0451 12.3524 17.6917C12.3524 16.3383 12.5289 15.9323 13.5524 14.9511C14.823 13.733 16.0583 13.4962 17.7877 14.1391ZM11.2936 18.03C11.2936 18.436 10.6583 18.5375 7.58768 18.5375C4.5171 18.5375 3.8818 18.436 3.8818 18.03C3.8818 17.624 4.5171 17.5225 7.58768 17.5225C10.6583 17.5225 11.2936 17.624 11.2936 18.03Z" fill="url(#paint0_radial_2906_16209)"/>
<path d="M15.0335 15.8309C14.1511 16.643 14.0452 16.8798 14.4335 17.3197C14.7158 17.6242 15.4217 17.9964 16.0217 18.1317C17.5394 18.5039 17.1864 19.0791 15.5276 18.9437C14.01 18.8422 13.6217 19.3497 14.9276 19.7558C15.3511 19.8911 15.81 20.1279 15.9158 20.2971C16.2335 20.7708 17.9982 19.2144 17.9982 18.5039C17.9982 17.7933 17.01 17.1843 15.9158 17.1843C15.1041 17.1843 14.9276 16.6768 15.6335 16.4061C15.8805 16.3046 16.5158 16.3046 17.0452 16.4061C18.1747 16.6091 18.3864 15.8648 17.2923 15.5941C16.9041 15.4926 16.5864 15.2896 16.5864 15.1204C16.5864 14.6129 16.0923 14.8159 15.0335 15.8309Z" fill="url(#paint1_radial_2906_16209)"/>
<path d="M17.6957 6.48893C17.6957 7.94382 17.731 7.97766 19.2134 8.34984C21.331 8.89119 24.084 11.3611 25.0722 13.5604C26.131 15.8611 26.131 18.9739 25.0722 21.2746C23.484 24.8611 19.0369 27.4325 15.331 26.925C11.9075 26.4852 8.8722 24.4213 7.60161 21.6807C7.00161 20.3611 6.89573 20.2934 5.44867 20.2934C3.61338 20.2934 3.57809 20.4965 5.02514 23.2709C9.33103 31.5604 21.5781 32.2032 26.8016 24.4213C29.731 19.9889 29.6957 14.6431 26.6251 10.2446C24.8957 7.70698 21.8957 5.74457 19.0016 5.23705L17.6957 5.00021V6.48893ZM21.6487 7.16562C30.331 11.598 30.1193 23.8122 21.2957 27.9739C18.6134 29.2258 14.2016 29.3273 11.6251 28.1769C9.43691 27.1957 6.89573 24.8949 5.83691 22.9325C4.81338 21.004 4.81338 20.9701 5.62514 20.9701C6.04867 20.9701 6.5075 21.4438 6.93103 22.3574C7.81338 24.2183 10.6016 26.5528 12.7898 27.2295C14.9781 27.9401 18.7193 27.8047 20.5546 26.925C22.7075 25.9438 24.6487 24.0829 25.7075 22.0528C26.5546 20.4288 26.6957 19.6844 26.6957 17.4175C26.6957 15.1506 26.5546 14.4062 25.7075 12.7822C24.5781 10.5829 22.5663 8.78969 20.3075 7.87615C19.3193 7.47014 18.7546 7.06412 18.7546 6.65811C18.7546 5.84608 19.2487 5.91375 21.6487 7.16562Z" fill="url(#paint2_radial_2906_16209)"/>
<path d="M17.8602 9.30112C17.7543 9.43645 17.6484 10.0793 17.6484 10.7898C17.6484 11.9402 17.7896 12.1432 18.8837 12.6507C22.0249 14.0718 23.0131 18.3011 20.8602 21.1771C19.9073 22.4628 19.9426 22.6319 21.0014 23.6131C22.0602 24.5605 22.4837 24.2898 23.9308 21.9553C24.7426 20.6019 24.8837 20.0267 24.8837 17.6921C24.8837 15.3575 24.7426 14.7823 23.8955 13.3951C23.3661 12.5154 22.4131 11.3989 21.7778 10.959C20.4014 9.94397 18.1778 8.99661 17.8602 9.30112ZM22.0249 12.4477C23.5426 14.0718 24.4955 16.9139 24.1426 18.7748C23.8955 20.1282 22.3073 23.2748 21.8484 23.2748C21.2131 23.2748 21.319 22.1921 22.0955 20.7034C23.119 18.7748 23.1896 16.8462 22.272 14.9853C21.672 13.6996 19.7308 11.771 19.0602 11.771C18.7426 11.771 18.3543 10.553 18.6014 10.3162C18.919 9.97781 20.8249 11.162 22.0249 12.4477Z" fill="url(#paint3_radial_2906_16209)"/>
<path d="M53.3079 13.1525C53.2073 12.7796 53.0593 12.4511 52.864 12.167C52.6687 11.877 52.429 11.6314 52.1449 11.4302C51.8608 11.2289 51.5353 11.078 51.1683 10.9774C50.8014 10.8709 50.3989 10.8176 49.9609 10.8176C49.0791 10.8176 48.3156 11.0307 47.6705 11.4568C47.0312 11.8829 46.5371 12.5044 46.1879 13.3212C45.8387 14.132 45.6641 15.1174 45.6641 16.2775C45.6641 17.4434 45.8327 18.4378 46.1701 19.2604C46.5075 20.0831 46.9957 20.7105 47.6349 21.1425C48.2741 21.5746 49.0495 21.7906 49.9609 21.7906C50.7659 21.7906 51.4465 21.6604 52.0028 21.4C52.5651 21.1337 52.9912 20.7578 53.2812 20.2725C53.5713 19.7872 53.7163 19.216 53.7163 18.5591L54.533 18.6567H50.1119V15.4518H57.951V17.8577C57.951 19.4853 57.6048 20.8792 56.9123 22.0392C56.2257 23.1992 55.2788 24.09 54.0714 24.7114C52.8699 25.3329 51.4879 25.6436 49.9254 25.6436C48.1913 25.6436 46.6673 25.2678 45.3533 24.5161C44.0394 23.7645 43.0155 22.6932 42.2816 21.3023C41.5477 19.9056 41.1808 18.2484 41.1808 16.3307C41.1808 14.8393 41.4027 13.5165 41.8466 12.3623C42.2905 11.2023 42.909 10.2198 43.7021 9.41491C44.5011 8.60998 45.4244 8.00037 46.4719 7.58607C47.5255 7.17177 48.6589 6.96462 49.8722 6.96462C50.9257 6.96462 51.9052 7.11554 52.8107 7.41739C53.7222 7.71924 54.5271 8.14537 55.2255 8.6958C55.9298 9.24623 56.5009 9.90023 56.9389 10.6578C57.3769 11.4154 57.6491 12.2469 57.7557 13.1525H53.3079ZM66.9065 25.6525C65.4742 25.6525 64.2432 25.3595 63.2133 24.7736C62.1894 24.1817 61.3993 23.359 60.843 22.3055C60.2925 21.2461 60.0173 20.018 60.0173 18.6212C60.0173 17.2185 60.2925 15.9904 60.843 14.9369C61.3993 13.8775 62.1894 13.0548 63.2133 12.4689C64.2432 11.877 65.4742 11.5811 66.9065 11.5811C68.3388 11.5811 69.5669 11.877 70.5908 12.4689C71.6207 13.0548 72.4108 13.8775 72.9612 14.9369C73.5175 15.9904 73.7957 17.2185 73.7957 18.6212C73.7957 20.018 73.5175 21.2461 72.9612 22.3055C72.4108 23.359 71.6207 24.1817 70.5908 24.7736C69.5669 25.3595 68.3388 25.6525 66.9065 25.6525ZM66.9331 22.3766C67.454 22.3766 67.8949 22.2168 68.2559 21.8972C68.617 21.5775 68.8922 21.1337 69.0816 20.5655C69.2769 19.9973 69.3746 19.3403 69.3746 18.5946C69.3746 17.837 69.2769 17.1741 69.0816 16.606C68.8922 16.0378 68.617 15.5939 68.2559 15.2743C67.8949 14.9547 67.454 14.7949 66.9331 14.7949C66.3946 14.7949 65.9388 14.9547 65.566 15.2743C65.199 15.5939 64.9179 16.0378 64.7226 16.606C64.5332 17.1741 64.4385 17.837 64.4385 18.5946C64.4385 19.3403 64.5332 19.9973 64.7226 20.5655C64.9179 21.1337 65.199 21.5775 65.566 21.8972C65.9388 22.2168 66.3946 22.3766 66.9331 22.3766ZM76.0196 25.395V7.2132H88.4308V10.7821H80.4142V14.5108H87.6407V18.0886H80.4142V25.395H76.0196ZM98.5871 19.509V11.7587H102.919V25.395H98.7824V22.856H98.6404C98.3385 23.6905 97.8236 24.3534 97.0956 24.8446C96.3736 25.3299 95.5006 25.5726 94.4767 25.5726C93.5474 25.5726 92.7307 25.3595 92.0264 24.9334C91.3221 24.5072 90.7746 23.9124 90.384 23.1489C89.9933 22.3795 89.7951 21.4799 89.7892 20.4501V11.7587H94.1304V19.5978C94.1363 20.3376 94.3316 20.9206 94.7164 21.3467C95.1011 21.7729 95.6249 21.9859 96.2877 21.9859C96.7198 21.9859 97.1075 21.8912 97.4507 21.7018C97.7999 21.5065 98.0751 21.2254 98.2764 20.8584C98.4835 20.4856 98.5871 20.0358 98.5871 19.509ZM110.024 17.618V25.395H105.683V11.7587H109.811V14.2622H109.962C110.264 13.4277 110.779 12.7737 111.507 12.3002C112.235 11.8208 113.102 11.5811 114.108 11.5811C115.067 11.5811 115.898 11.7971 116.602 12.2292C117.313 12.6553 117.863 13.2531 118.254 14.0225C118.65 14.786 118.846 15.6797 118.84 16.7036V25.395H114.498V17.5559C114.504 16.7983 114.312 16.2065 113.921 15.7803C113.537 15.3542 113.001 15.1411 112.314 15.1411C111.859 15.1411 111.456 15.2417 111.107 15.443C110.764 15.6383 110.497 15.9194 110.308 16.2864C110.125 16.6533 110.03 17.0972 110.024 17.618ZM126.508 25.5903C125.502 25.5903 124.587 25.3299 123.765 24.8091C122.942 24.2882 122.285 23.507 121.794 22.4653C121.303 21.4237 121.057 20.1305 121.057 18.5857C121.057 16.9818 121.311 15.6619 121.82 14.6262C122.329 13.5905 122.995 12.824 123.818 12.3268C124.647 11.8297 125.537 11.5811 126.49 11.5811C127.206 11.5811 127.819 11.7054 128.328 11.954C128.837 12.1966 129.257 12.5103 129.589 12.895C129.92 13.2797 130.171 13.6792 130.343 14.0935H130.432V7.2132H134.773V25.395H130.476V23.1844H130.343C130.16 23.6047 129.899 23.9982 129.562 24.3652C129.225 24.7321 128.801 25.0281 128.292 25.253C127.789 25.4779 127.194 25.5903 126.508 25.5903ZM128.017 22.2079C128.544 22.2079 128.994 22.0599 129.367 21.764C129.739 21.4621 130.026 21.039 130.228 20.4945C130.429 19.9499 130.53 19.3107 130.53 18.5768C130.53 17.8311 130.429 17.1889 130.228 16.6503C130.032 16.1118 129.745 15.6975 129.367 15.4074C128.994 15.1174 128.544 14.9724 128.017 14.9724C127.479 14.9724 127.023 15.1204 126.65 15.4163C126.277 15.7123 125.993 16.1295 125.798 16.6681C125.608 17.2067 125.514 17.8429 125.514 18.5768C125.514 19.3107 125.611 19.9499 125.807 20.4945C126.002 21.039 126.283 21.4621 126.65 21.764C127.023 22.0599 127.479 22.2079 128.017 22.2079ZM141.913 7.2132V25.395H137.519V7.2132H141.913ZM152.369 11.7587V14.9547H143.766V11.7587H152.369ZM145.569 8.49161H149.91V21.107C149.91 21.3734 149.951 21.5894 150.034 21.7551C150.123 21.9149 150.25 22.0303 150.416 22.1013C150.582 22.1664 150.78 22.199 151.011 22.199C151.176 22.199 151.351 22.1842 151.535 22.1546C151.724 22.1191 151.866 22.0895 151.961 22.0658L152.618 25.1997C152.41 25.2589 152.118 25.3329 151.739 25.4217C151.366 25.5104 150.919 25.5667 150.398 25.5903C149.38 25.6377 148.507 25.5193 147.779 25.2352C147.057 24.9452 146.504 24.4954 146.119 23.8858C145.74 23.2762 145.557 22.5097 145.569 21.5864V8.49161ZM170.351 7.2132V25.395H166.622L159.387 14.9014H159.272V25.395H154.877V7.2132H158.659L165.815 17.6891H165.965V7.2132H170.351ZM179.48 25.6525C178.047 25.6525 176.816 25.3595 175.787 24.7736C174.763 24.1817 173.973 23.359 173.416 22.3055C172.866 21.2461 172.591 20.018 172.591 18.6212C172.591 17.2185 172.866 15.9904 173.416 14.9369C173.973 13.8775 174.763 13.0548 175.787 12.4689C176.816 11.877 178.047 11.5811 179.48 11.5811C180.912 11.5811 182.14 11.877 183.164 12.4689C184.194 13.0548 184.984 13.8775 185.534 14.9369C186.091 15.9904 186.369 17.2185 186.369 18.6212C186.369 20.018 186.091 21.2461 185.534 22.3055C184.984 23.359 184.194 24.1817 183.164 24.7736C182.14 25.3595 180.912 25.6525 179.48 25.6525ZM179.506 22.3766C180.027 22.3766 180.468 22.2168 180.829 21.8972C181.19 21.5775 181.465 21.1337 181.655 20.5655C181.85 19.9973 181.948 19.3403 181.948 18.5946C181.948 17.837 181.85 17.1741 181.655 16.606C181.465 16.0378 181.19 15.5939 180.829 15.2743C180.468 14.9547 180.027 14.7949 179.506 14.7949C178.968 14.7949 178.512 14.9547 178.139 15.2743C177.772 15.5939 177.491 16.0378 177.296 16.606C177.106 17.1741 177.012 17.837 177.012 18.5946C177.012 19.3403 177.106 19.9973 177.296 20.5655C177.491 21.1337 177.772 21.5775 178.139 21.8972C178.512 22.2168 178.968 22.3766 179.506 22.3766ZM190.848 25.395L187.297 11.7587H191.656L193.493 20.4945H193.609L195.58 11.7587H199.832L201.856 20.4323H201.972L203.756 11.7587H208.115L204.555 25.395H199.912L197.781 17.4494H197.631L195.5 25.395H190.848Z" fill="url(#paint4_linear_2906_16209)"/>
<defs>
<radialGradient id="paint0_radial_2906_16209" cx="0" cy="0" r="1" gradientUnits="userSpaceOnUse" gradientTransform="translate(12.134 12.1934) rotate(-90) scale(10.3266 8.99341)">
<stop stop-color="#9747FF"/>
<stop offset="1" stop-color="#030381"/>
</radialGradient>
<radialGradient id="paint1_radial_2906_16209" cx="0" cy="0" r="1" gradientUnits="userSpaceOnUse" gradientTransform="translate(16.0741 17.6191) rotate(-90) scale(2.76613 1.93735)">
<stop stop-color="#9747FF"/>
<stop offset="1" stop-color="#030381"/>
</radialGradient>
<radialGradient id="paint2_radial_2906_16209" cx="0" cy="0" r="1" gradientUnits="userSpaceOnUse" gradientTransform="translate(16.482 17.4459) rotate(-90) scale(12.4457 12.482)">
<stop stop-color="#9747FF"/>
<stop offset="1" stop-color="#030381"/>
</radialGradient>
<radialGradient id="paint3_radial_2906_16209" cx="0" cy="0" r="1" gradientUnits="userSpaceOnUse" gradientTransform="translate(21.2661 16.6836) rotate(-90) scale(7.4404 3.61765)">
<stop stop-color="#9747FF"/>
<stop offset="1" stop-color="#030381"/>
</radialGradient>
<linearGradient id="paint4_linear_2906_16209" x1="40" y1="16.395" x2="209" y2="16.395" gradientUnits="userSpaceOnUse">
<stop stop-color="#9747FF"/>
<stop offset="1" stop-color="#0A0A89"/>
</linearGradient>
</defs>
</svg>
