<svg width="26" height="29" viewBox="0 0 26 29" fill="none" xmlns="http://www.w3.org/2000/svg">
<path d="M7.12886 0.992434C6.70533 1.22928 6.52886 1.77063 6.52886 2.8195C6.52886 4.17289 6.45827 4.30822 5.47004 4.51123C4.41121 4.74807 2.50533 6.50747 2.15239 7.65785C2.01121 8.03003 1.58768 8.40221 1.23474 8.50371C0.211213 8.77439 0.211213 11.109 1.23474 11.109C1.87004 11.109 1.94063 11.3458 1.94063 13.2744C1.94063 15.2706 1.87004 15.4736 1.16415 15.5751C0.493566 15.6428 0.317096 15.9135 0.246507 16.9285L0.140625 18.2142H4.37592C8.25827 18.2142 8.61121 18.2819 8.82298 18.8909C9.14062 19.8721 10.9759 21.1917 12.423 21.4624C14.3642 21.8007 16.623 20.6165 17.47 18.7894C18.3524 16.9624 18.3524 16.3872 17.4347 14.5939C16.5877 12.936 15.2818 12.124 13.4112 12.124C12.5642 12.124 12.1759 11.9887 12.1759 11.6165C12.1759 11.3458 12.4936 11.109 12.8818 11.109C13.9053 11.109 13.9053 8.77439 12.8818 8.50371C12.5289 8.40221 12.1053 7.99619 11.9642 7.59018C11.6112 6.47364 9.70533 4.74807 8.57592 4.51123C6.8818 4.13905 7.41121 3.46236 9.38768 3.49619C10.9759 3.49619 11.2936 3.36086 11.9289 2.54883C12.4583 1.90597 12.5642 1.53379 12.2818 1.26311C11.9994 0.992434 11.823 0.992434 11.6818 1.26311C11.3289 1.77063 9.84651 1.7368 8.7171 1.16161C8.04651 0.823261 7.55239 0.789427 7.12886 0.992434ZM8.47004 1.9398C8.57592 2.10898 9.14062 2.34582 9.74063 2.48116C11.2936 2.8195 10.7289 3.09018 9.03474 2.8195C8.15239 2.68416 7.58768 2.41349 7.58768 2.10898C7.58768 1.56762 8.15239 1.46612 8.47004 1.9398ZM8.54063 5.3571C9.2818 5.3571 11.1171 7.42101 11.1171 8.26687C11.1171 8.90973 11.2936 9.0789 12.0347 9.0789C12.7053 9.0789 12.9171 9.21424 12.8112 9.65409C12.7053 10.1954 12.1406 10.2631 7.05827 10.2631C2.0818 10.2631 1.41121 10.1954 1.30533 9.68792C1.23474 9.31574 1.4818 9.0789 1.97592 9.01123C2.54063 8.94356 2.85827 8.57138 3.07004 7.86086C3.52886 6.16913 5.64651 4.84958 7.41121 5.18792C7.79945 5.28943 8.29357 5.3571 8.54063 5.3571ZM3.49357 13.3759C3.45827 14.7631 3.3171 15.6766 3.07004 15.7781C2.78768 15.8458 2.64651 15.1691 2.64651 13.5112C2.64651 11.8195 2.78768 11.109 3.10533 11.109C3.38768 11.109 3.52886 11.7857 3.49357 13.3759ZM5.82298 13.3082C5.82298 15.2706 5.75239 15.5075 5.1171 15.5075C4.4818 15.5075 4.41121 15.2706 4.41121 13.3082C4.41121 11.3458 4.4818 11.109 5.1171 11.109C5.75239 11.109 5.82298 11.3458 5.82298 13.3082ZM7.5171 13.3082C7.37592 16.2518 6.74063 16.2857 6.59945 13.3759C6.52886 11.4812 6.59945 11.109 7.05827 11.109C7.5171 11.109 7.58768 11.4812 7.5171 13.3082ZM9.70533 12.124C9.70533 12.6992 9.38768 13.7142 8.99945 14.3909L8.29357 15.6766V13.3759C8.29357 11.3458 8.36415 11.109 8.99945 11.109C9.56415 11.109 9.70533 11.3458 9.70533 12.124ZM11.47 11.7857C11.47 12.1578 11.223 12.4624 10.9406 12.4624C10.6583 12.4624 10.4112 12.1578 10.4112 11.7857C10.4112 11.4135 10.6583 11.109 10.9406 11.109C11.223 11.109 11.47 11.4135 11.47 11.7857ZM14.7877 13.1391C15.2818 13.3082 16.023 13.9511 16.4112 14.5601C18.1053 17.233 16.6583 20.1428 13.4818 20.4812C11.9642 20.6503 11.7524 20.5827 10.5877 19.4661C9.52886 18.4511 9.35239 18.0451 9.35239 16.6917C9.35239 15.3383 9.52886 14.9323 10.5524 13.9511C11.823 12.733 13.0583 12.4962 14.7877 13.1391ZM8.29357 17.03C8.29357 17.436 7.65827 17.5375 4.58768 17.5375C1.5171 17.5375 0.881801 17.436 0.881801 17.03C0.881801 16.624 1.5171 16.5225 4.58768 16.5225C7.65827 16.5225 8.29357 16.624 8.29357 17.03Z" fill="url(#paint0_radial_2906_16211)"/>
<path d="M12.0335 14.8309C11.1511 15.643 11.0452 15.8798 11.4335 16.3197C11.7158 16.6242 12.4217 16.9964 13.0217 17.1317C14.5394 17.5039 14.1864 18.0791 12.5276 17.9437C11.01 17.8422 10.6217 18.3497 11.9276 18.7558C12.3511 18.8911 12.81 19.1279 12.9158 19.2971C13.2335 19.7708 14.9982 18.2144 14.9982 17.5039C14.9982 16.7933 14.01 16.1843 12.9158 16.1843C12.1041 16.1843 11.9276 15.6768 12.6335 15.4061C12.8805 15.3046 13.5158 15.3046 14.0452 15.4061C15.1747 15.6091 15.3864 14.8648 14.2923 14.5941C13.9041 14.4926 13.5864 14.2896 13.5864 14.1204C13.5864 13.6129 13.0923 13.8159 12.0335 14.8309Z" fill="url(#paint1_radial_2906_16211)"/>
<path d="M14.6957 5.48893C14.6957 6.94382 14.731 6.97766 16.2134 7.34984C18.331 7.89119 21.084 10.3611 22.0722 12.5604C23.131 14.8611 23.131 17.9739 22.0722 20.2746C20.484 23.8611 16.0369 26.4325 12.331 25.925C8.9075 25.4852 5.8722 23.4213 4.60161 20.6807C4.00161 19.3611 3.89573 19.2934 2.44867 19.2934C0.613379 19.2934 0.578085 19.4965 2.02514 22.2709C6.33103 30.5604 18.5781 31.2032 23.8016 23.4213C26.731 18.9889 26.6957 13.6431 23.6251 9.24457C21.8957 6.70698 18.8957 4.74457 16.0016 4.23705L14.6957 4.00021V5.48893ZM18.6487 6.16562C27.331 10.598 27.1193 22.8122 18.2957 26.9739C15.6134 28.2258 11.2016 28.3273 8.62514 27.1769C6.43691 26.1957 3.89573 23.8949 2.83691 21.9325C1.81338 20.004 1.81338 19.9701 2.62514 19.9701C3.04867 19.9701 3.5075 20.4438 3.93103 21.3574C4.81338 23.2183 7.60161 25.5528 9.78985 26.2295C11.9781 26.9401 15.7193 26.8047 17.5546 25.925C19.7075 24.9438 21.6487 23.0829 22.7075 21.0528C23.5546 19.4288 23.6957 18.6844 23.6957 16.4175C23.6957 14.1506 23.5546 13.4062 22.7075 11.7822C21.5781 9.58292 19.5663 7.78969 17.3075 6.87615C16.3193 6.47014 15.7546 6.06412 15.7546 5.65811C15.7546 4.84608 16.2487 4.91375 18.6487 6.16562Z" fill="url(#paint2_radial_2906_16211)"/>
<path d="M14.8602 8.30112C14.7543 8.43645 14.6484 9.07931 14.6484 9.78984C14.6484 10.9402 14.7896 11.1432 15.8837 11.6507C19.0249 13.0718 20.0131 17.3011 17.8602 20.1771C16.9073 21.4628 16.9426 21.6319 18.0014 22.6131C19.0602 23.5605 19.4837 23.2898 20.9308 20.9553C21.7426 19.6019 21.8837 19.0267 21.8837 16.6921C21.8837 14.3575 21.7426 13.7823 20.8955 12.3951C20.3661 11.5154 19.4131 10.3989 18.7778 9.95901C17.4014 8.94397 15.1778 7.99661 14.8602 8.30112ZM19.0249 11.4477C20.5426 13.0718 21.4955 15.9139 21.1426 17.7748C20.8955 19.1282 19.3073 22.2748 18.8484 22.2748C18.2131 22.2748 18.319 21.1921 19.0955 19.7034C20.119 17.7748 20.1896 15.8462 19.272 13.9853C18.672 12.6996 16.7308 10.771 16.0602 10.771C15.7426 10.771 15.3543 9.553 15.6014 9.31615C15.919 8.97781 17.8249 10.162 19.0249 11.4477Z" fill="url(#paint3_radial_2906_16211)"/>
<defs>
<radialGradient id="paint0_radial_2906_16211" cx="0" cy="0" r="1" gradientUnits="userSpaceOnUse" gradientTransform="translate(9.13404 11.1934) rotate(-90) scale(10.3266 8.99341)">
<stop stop-color="#9747FF"/>
<stop offset="1" stop-color="#030381"/>
</radialGradient>
<radialGradient id="paint1_radial_2906_16211" cx="0" cy="0" r="1" gradientUnits="userSpaceOnUse" gradientTransform="translate(13.0741 16.6191) rotate(-90) scale(2.76613 1.93735)">
<stop stop-color="#9747FF"/>
<stop offset="1" stop-color="#030381"/>
</radialGradient>
<radialGradient id="paint2_radial_2906_16211" cx="0" cy="0" r="1" gradientUnits="userSpaceOnUse" gradientTransform="translate(13.482 16.4459) rotate(-90) scale(12.4457 12.482)">
<stop stop-color="#9747FF"/>
<stop offset="1" stop-color="#030381"/>
</radialGradient>
<radialGradient id="paint3_radial_2906_16211" cx="0" cy="0" r="1" gradientUnits="userSpaceOnUse" gradientTransform="translate(18.2661 15.6836) rotate(-90) scale(7.4404 3.61765)">
<stop stop-color="#9747FF"/>
<stop offset="1" stop-color="#030381"/>
</radialGradient>
</defs>
</svg>
