<svg width="1088" height="850" viewBox="0 0 1088 850" fill="none" xmlns="http://www.w3.org/2000/svg">
<g clip-path="url(#clip0_2203_23776)">
<path d="M1085.9 277.164C928.568 249.504 555.9 266.22 323.9 554.374C33.9003 914.568 731.9 401.18 858.9 848" stroke="#A0ADB5"/>
<path d="M1049.9 239.206C892.568 211.546 519.9 228.264 287.9 516.418C-2.09969 876.61 695.9 363.222 822.9 810.042" stroke="#A0ADB5"/>
<path d="M1013.9 201.248C856.568 173.588 483.9 190.306 251.9 478.46C-38.0997 838.652 659.9 325.264 786.9 772.084" stroke="#A0ADB5"/>
<path d="M977.9 163.29C820.568 135.63 447.9 152.348 215.9 440.502C-74.0997 800.694 623.9 287.306 750.9 734.128" stroke="#A0ADB5"/>
<path d="M941.9 125.333C784.568 97.6727 411.9 114.391 179.901 402.544C-110.099 762.736 587.9 249.348 714.9 696.17" stroke="#A0ADB5"/>
<path d="M905.9 87.3751C748.568 59.7147 375.9 76.4325 143.901 364.586C-146.099 724.778 551.9 211.39 678.9 658.212" stroke="#A0ADB5"/>
<path d="M869.9 49.418C712.568 21.7578 339.9 38.4756 107.901 326.63C-182.099 686.822 515.9 173.434 642.9 620.254" stroke="#A0ADB5"/>
<path d="M833.9 11.46C676.568 -16.2003 303.9 0.517487 71.9002 288.672C-218.1 648.864 479.9 135.476 606.9 582.296" stroke="#A0ADB5"/>
</g>
<defs>
<clipPath id="clip0_2203_23776">
<rect width="544" height="425" fill="white" transform="scale(2)"/>
</clipPath>
</defs>
</svg>
